<?xml version="1.0" standalone="no"?>
<!DOCTYPE svg PUBLIC "-//W3C//DTD SVG 20010904//EN"
 "http://www.w3.org/TR/2001/REC-SVG-20010904/DTD/svg10.dtd">
<svg version="1.0" xmlns="http://www.w3.org/2000/svg"
 width="260.000000pt" height="260.000000pt" viewBox="0 0 260.000000 260.000000"
 preserveAspectRatio="xMidYMid meet">
<metadata>
Created by potrace 1.14, written by Peter Selinger 2001-2017
</metadata>
<g transform="translate(0.000000,260.000000) scale(0.100000,-0.100000)"
fill="#000000" stroke="none">
<path d="M323 1910 c-18 -5 -18 -31 -17 -605 1 -330 2 -602 3 -605 0 -3 177
-5 391 -5 l390 0 0 102 0 102 -265 -2 c-230 -2 -265 0 -266 13 0 8 -1 237 -1
508 0 363 -3 492 -12 493 -72 3 -209 3 -223 -1z"/>
<path d="M1639 1912 c-23 -3 -30 -14 -63 -105 -122 -329 -361 -971 -381 -1025
-14 -34 -25 -68 -25 -75 0 -10 30 -13 129 -12 71 0 131 2 133 5 3 3 23 59 45
125 l40 120 216 0 216 0 20 -55 c11 -30 30 -85 42 -122 12 -38 27 -69 33 -69
44 -5 256 -3 256 3 0 13 -442 1193 -451 1202 -8 9 -156 14 -210 8z m173 -550
c37 -112 68 -205 68 -208 0 -2 -65 -4 -145 -4 -80 0 -145 4 -145 8 0 7 119
374 137 422 5 13 6 13 11 0 3 -8 36 -106 74 -218z"/>
</g>
</svg>
